# xmcd
#
# Track frame offsets:
#	150
#	12085
#	24010
#	35573
#	47688
#	62705
#	74943
#	89650
#	100150
#	112163
#
# Disc length: 1678 seconds
# Revision: 1
# Processed by: cddbd v1.5.2PL0 Copyright (c) Steve Scherf et al.
# Submitted via: dBpowerAMP V12.0
#
DISCID=87068c0a
DTITLE=Donna Fargo - Country Spotlight
DYEAR=1992
DGENRE=Country
TTITLE0=The Happiest Girl In The Whole U.S.A.
TTITLE1=It Do Feel Good
TTITLE2=Superman
TTITLE3=Little Girl Gone
TTITLE4=You Were Always There
TTITLE5=Funny Face
TTITLE6=I'll Try A Little Bit Harder
TTITLE7=Hello Little Bluebird
TTITLE8=U.S. Of A.
TTITLE9=You Can't Be A Beacon (If Your Light Don't Shine)
EXTD=
EXTT0=
EXTT1=
EXTT2=
EXTT3=
EXTT4=
EXTT5=
EXTT6=
EXTT7=
EXTT8=
EXTT9=
PLAYORDER=
